<svg xmlns="http://www.w3.org/2000/svg" xmlns:xlink="http://www.w3.org/1999/xlink" width="325" height="140" viewBox="0 0 325 140">
  <defs>
    <clipPath id="clip-path">
      <rect id="Rectangle_1356" data-name="Rectangle 1356" width="325" height="140" transform="translate(-0.34)" fill="#121212"/>
    </clipPath>
  </defs>
  <g id="Group_2" data-name="Group 2" transform="translate(0.34)" clip-path="url(#clip-path)">
    <g id="Group_337" data-name="Group 337" transform="translate(-61.34 -314.947)">
      <g id="Group_326" data-name="Group 326" transform="translate(0 261.537)">
        <path id="Path_1047" data-name="Path 1047" d="M-1526.34,2568.269l-284.4.53c-237.622.535-429.781,178.392-429.2,397.254v107.552" transform="translate(2239.945 -2568.269)" fill="none" stroke="#c9c9c9" stroke-linecap="round" stroke-miterlimit="10" stroke-width="1"/>
        <path id="Path_1048" data-name="Path 1048" d="M-1520.049,2582.225l-279.867.523c-236.829.519-424.385,174.9-423.823,392.862v104.082" transform="translate(2233.655 -2574.361)" fill="none" stroke="#c3c9c9" stroke-linecap="round" stroke-miterlimit="10" stroke-width="1" stroke-dasharray="5.806 0.194"/>
        <path id="Path_1049" data-name="Path 1049" d="M-1513.758,2596.182l-275.33.516c-236.037.5-418.989,171.4-418.445,388.468V3085.78" transform="translate(2227.363 -2580.453)" fill="none" stroke="#bdc8ca" stroke-linecap="round" stroke-miterlimit="10" stroke-width="1" stroke-dasharray="5.613 0.387"/>
        <path id="Path_1050" data-name="Path 1050" d="M-1507.467,2610.138l-270.792.509c-235.244.484-413.594,167.9-413.068,384.076v97.144" transform="translate(2221.073 -2586.545)" fill="none" stroke="#b7c8ca" stroke-linecap="round" stroke-miterlimit="10" stroke-width="1" stroke-dasharray="5.419 0.581"/>
        <path id="Path_1051" data-name="Path 1051" d="M-1501.176,2624.095l-266.255.5c-234.451.467-408.2,164.405-407.691,379.682v93.675" transform="translate(2214.782 -2592.637)" fill="none" stroke="#b0c7ca" stroke-linecap="round" stroke-miterlimit="10" stroke-width="1" stroke-dasharray="5.226 0.774"/>
        <path id="Path_1052" data-name="Path 1052" d="M-1494.885,2638.051l-261.718.5c-233.66.449-402.8,160.908-402.315,375.29v90.2" transform="translate(2208.491 -2598.729)" fill="none" stroke="#aac7cb" stroke-linecap="round" stroke-miterlimit="10" stroke-width="1" stroke-dasharray="5.032 0.968"/>
        <path id="Path_1053" data-name="Path 1053" d="M-1488.595,2652.007l-257.18.49c-232.867.432-397.407,157.411-396.937,370.9v86.735" transform="translate(2202.2 -2604.821)" fill="none" stroke="#a4c6cb" stroke-linecap="round" stroke-miterlimit="10" stroke-width="1" stroke-dasharray="4.839 1.161"/>
        <path id="Path_1054" data-name="Path 1054" d="M-1482.3,2665.964l-252.643.483c-232.075.415-392.011,153.914-391.561,366.5v83.266" transform="translate(2195.91 -2610.913)" fill="none" stroke="#9ec6cb" stroke-linecap="round" stroke-miterlimit="10" stroke-width="1" stroke-dasharray="4.645 1.355"/>
        <path id="Path_1055" data-name="Path 1055" d="M-1476.013,2679.92l-248.106.477c-231.282.4-386.615,150.417-386.184,362.11v79.8" transform="translate(2189.619 -2617.004)" fill="none" stroke="#98c6cc" stroke-linecap="round" stroke-miterlimit="10" stroke-width="1" stroke-dasharray="4.452 1.548"/>
        <path id="Path_1056" data-name="Path 1056" d="M-1469.722,2693.877l-243.569.469c-230.49.38-381.219,146.921-380.806,357.718v76.327" transform="translate(2183.328 -2623.096)" fill="none" stroke="#92c5cc" stroke-linecap="round" stroke-miterlimit="10" stroke-width="1" stroke-dasharray="4.258 1.742"/>
        <path id="Path_1057" data-name="Path 1057" d="M-1463.432,2707.833l-239.031.463c-229.7.363-375.823,143.424-375.43,353.324v72.858" transform="translate(2177.037 -2629.188)" fill="none" stroke="#8cc5cd" stroke-linecap="round" stroke-miterlimit="10" stroke-width="1" stroke-dasharray="4.065 1.935"/>
        <path id="Path_1058" data-name="Path 1058" d="M-1457.141,2721.789l-234.494.457c-228.9.345-370.427,139.927-370.052,348.931v69.388" transform="translate(2170.747 -2635.28)" fill="none" stroke="#86c4cd" stroke-linecap="round" stroke-miterlimit="10" stroke-width="1" stroke-dasharray="3.871 2.129"/>
        <path id="Path_1059" data-name="Path 1059" d="M-1450.85,2735.746l-229.956.449c-228.112.329-365.032,136.43-364.676,344.538v65.919" transform="translate(2164.456 -2641.372)" fill="none" stroke="#7fc4cd" stroke-linecap="round" stroke-miterlimit="10" stroke-width="1" stroke-dasharray="3.677 2.323"/>
        <path id="Path_1060" data-name="Path 1060" d="M-1444.56,2749.7l-225.419.444c-227.32.311-359.636,132.933-359.3,340.145v62.449" transform="translate(2158.165 -2647.464)" fill="none" stroke="#79c4ce" stroke-linecap="round" stroke-miterlimit="10" stroke-width="1" stroke-dasharray="3.484 2.516"/>
        <path id="Path_1061" data-name="Path 1061" d="M-1438.268,2763.659l-220.882.437c-226.527.293-354.24,129.436-353.921,335.751v58.98" transform="translate(2151.874 -2653.556)" fill="none" stroke="#73c3ce" stroke-linecap="round" stroke-miterlimit="10" stroke-width="1" stroke-dasharray="3.29 2.71"/>
        <path id="Path_1062" data-name="Path 1062" d="M-1431.978,2777.615l-216.344.43c-225.735.277-348.845,125.939-348.544,331.358v55.511" transform="translate(2145.583 -2659.648)" fill="none" stroke="#6dc3ce" stroke-linecap="round" stroke-miterlimit="10" stroke-width="1" stroke-dasharray="3.097 2.903"/>
        <path id="Path_1063" data-name="Path 1063" d="M-1425.687,2791.571l-211.807.424c-224.942.259-343.449,122.442-343.167,326.966V3171" transform="translate(2139.293 -2665.74)" fill="none" stroke="#67c2cf" stroke-linecap="round" stroke-miterlimit="10" stroke-width="1" stroke-dasharray="2.903 3.097"/>
        <path id="Path_1064" data-name="Path 1064" d="M-1419.4,2805.528l-207.27.417c-224.15.242-338.052,118.946-337.79,322.573v48.572" transform="translate(2133.002 -2671.832)" fill="none" stroke="#61c2cf" stroke-linecap="round" stroke-miterlimit="10" stroke-width="1" stroke-dasharray="2.71 3.29"/>
        <path id="Path_1065" data-name="Path 1065" d="M-1413.105,2819.484l-202.733.41c-223.357.225-332.657,115.449-332.413,318.179v45.1" transform="translate(2126.711 -2677.923)" fill="none" stroke="#5bc1cf" stroke-linecap="round" stroke-miterlimit="10" stroke-width="1" stroke-dasharray="2.516 3.484"/>
        <path id="Path_1066" data-name="Path 1066" d="M-1406.815,2833.441l-198.2.4c-222.565.207-327.261,111.952-327.036,313.786v41.633" transform="translate(2120.42 -2684.015)" fill="none" stroke="#55c1d0" stroke-linecap="round" stroke-miterlimit="10" stroke-width="1" stroke-dasharray="2.323 3.677"/>
        <path id="Path_1067" data-name="Path 1067" d="M-1400.524,2847.4l-193.658.4c-221.772.19-321.865,108.455-321.659,309.394v38.163" transform="translate(2114.13 -2690.107)" fill="none" stroke="#4ec1d0" stroke-linecap="round" stroke-miterlimit="10" stroke-width="1" stroke-dasharray="2.129 3.871"/>
        <path id="Path_1068" data-name="Path 1068" d="M-1394.233,2861.353l-189.121.39c-220.979.173-316.469,104.958-316.282,305v34.694" transform="translate(2107.839 -2696.199)" fill="none" stroke="#48c0d0" stroke-linecap="round" stroke-miterlimit="10" stroke-width="1" stroke-dasharray="1.935 4.065"/>
        <path id="Path_1069" data-name="Path 1069" d="M-1387.942,2875.31l-184.583.384c-220.188.155-311.074,101.46-310.906,300.607v31.225" transform="translate(2101.548 -2702.291)" fill="none" stroke="#42c0d1" stroke-linecap="round" stroke-miterlimit="10" stroke-width="1" stroke-dasharray="1.742 4.258"/>
        <path id="Path_1070" data-name="Path 1070" d="M-1381.652,2889.266l-180.046.377c-219.395.139-305.678,97.964-305.528,296.214v27.756" transform="translate(2095.258 -2708.383)" fill="none" stroke="#3cbfd1" stroke-linecap="round" stroke-miterlimit="10" stroke-width="1" stroke-dasharray="1.548 4.452"/>
        <path id="Path_1071" data-name="Path 1071" d="M-1375.361,2903.223l-175.509.37c-218.6.121-300.282,94.467-300.151,291.821V3219.7" transform="translate(2088.967 -2714.475)" fill="none" stroke="#36bfd2" stroke-linecap="round" stroke-miterlimit="10" stroke-width="1" stroke-dasharray="1.355 4.645"/>
        <path id="Path_1072" data-name="Path 1072" d="M-1369.07,2917.179l-170.972.364c-217.81.1-294.887,90.97-294.774,287.428v20.816" transform="translate(2082.676 -2720.567)" fill="none" stroke="#30bfd2" stroke-linecap="round" stroke-miterlimit="10" stroke-width="1" stroke-dasharray="1.161 4.839"/>
        <path id="Path_1073" data-name="Path 1073" d="M-1362.779,2931.135l-166.434.357c-217.017.086-289.491,87.473-289.4,283.035v17.347" transform="translate(2076.385 -2726.659)" fill="none" stroke="#2abed2" stroke-linecap="round" stroke-miterlimit="10" stroke-width="1" stroke-dasharray="0.968 5.032"/>
        <path id="Path_1074" data-name="Path 1074" d="M-1356.488,2945.092l-161.9.351c-216.225.069-284.095,83.976-284.02,278.641v13.878" transform="translate(2070.094 -2732.751)" fill="none" stroke="#24bed3" stroke-linecap="round" stroke-miterlimit="10" stroke-width="1" stroke-dasharray="0.774 5.226"/>
        <path id="Path_1075" data-name="Path 1075" d="M-1350.2,2959.048l-157.36.344c-215.432.051-278.7,80.479-278.643,274.249v10.408" transform="translate(2063.803 -2738.843)" fill="none" stroke="#1dbdd3" stroke-linecap="round" stroke-miterlimit="10" stroke-width="1" stroke-dasharray="0.581 5.419"/>
        <path id="Path_1076" data-name="Path 1076" d="M-1343.907,2973l-152.822.337c-214.641.034-273.3,76.982-273.266,269.855v6.94" transform="translate(2057.512 -2744.935)" fill="none" stroke="#17bdd3" stroke-linecap="round" stroke-miterlimit="10" stroke-width="1" stroke-dasharray="0.387 5.613"/>
        <path id="Path_1077" data-name="Path 1077" d="M-1337.616,2986.961l-148.285.331c-213.848.017-267.908,73.485-267.889,265.462v3.47" transform="translate(2051.222 -2751.026)" fill="none" stroke="#11bcd4" stroke-linecap="round" stroke-miterlimit="10" stroke-width="1" stroke-dasharray="0.194 5.806"/>
        <path id="Path_1078" data-name="Path 1078" d="M-1331.325,3000.918l-143.748.323c-213.055,0-262.512,69.989-262.512,261.07h0" transform="translate(2044.931 -2757.119)" fill="none" stroke="#0bbcd4" stroke-linecap="round" stroke-miterlimit="10" stroke-width="1" stroke-dasharray="0 6"/>
      </g>
      <g id="Group_327" data-name="Group 327" transform="translate(0 0)">
        <path id="Path_1079" data-name="Path 1079" d="M-1526.34,2609.479l-284.4-.53c-237.622-.535-429.781-178.392-429.2-397.254V2104.143" transform="translate(2239.945 -2104.143)" fill="none" stroke="#0bbcd4" stroke-linecap="round" stroke-miterlimit="10" stroke-width="1"/>
        <path id="Path_1080" data-name="Path 1080" d="M-1520.048,2601.618l-279.867-.523c-236.829-.518-424.385-174.9-423.823-392.862V2104.151" transform="translate(2233.654 -2104.146)" fill="none" stroke="#11bcd4" stroke-linecap="round" stroke-miterlimit="10" stroke-width="1" stroke-dasharray="5.816 0.184"/>
        <path id="Path_1081" data-name="Path 1081" d="M-1513.758,2593.757l-275.33-.516c-236.037-.5-418.989-171.4-418.445-388.469V2104.159" transform="translate(2227.363 -2104.15)" fill="none" stroke="#17bdd3" stroke-linecap="round" stroke-miterlimit="10" stroke-width="1" stroke-dasharray="5.631 0.369"/>
        <path id="Path_1082" data-name="Path 1082" d="M-1507.467,2585.9l-270.792-.51c-235.244-.484-413.594-167.9-413.068-384.075v-97.144" transform="translate(2221.073 -2104.154)" fill="none" stroke="#1dbdd3" stroke-linecap="round" stroke-miterlimit="10" stroke-width="1" stroke-dasharray="5.447 0.553"/>
        <path id="Path_1083" data-name="Path 1083" d="M-1501.176,2578.036l-266.255-.5c-234.451-.466-408.2-164.4-407.691-379.682v-93.674" transform="translate(2214.782 -2104.157)" fill="none" stroke="#24bed3" stroke-linecap="round" stroke-miterlimit="10" stroke-width="1" stroke-dasharray="5.263 0.737"/>
        <path id="Path_1084" data-name="Path 1084" d="M-1494.885,2570.174l-261.718-.5c-233.66-.449-402.8-160.908-402.315-375.289v-90.2" transform="translate(2208.491 -2104.161)" fill="none" stroke="#2abed2" stroke-linecap="round" stroke-miterlimit="10" stroke-width="1" stroke-dasharray="5.078 0.922"/>
        <path id="Path_1085" data-name="Path 1085" d="M-1488.595,2562.313l-257.181-.49c-232.867-.432-397.406-157.411-396.937-370.9v-86.736" transform="translate(2202.2 -2104.165)" fill="none" stroke="#30bfd2" stroke-linecap="round" stroke-miterlimit="10" stroke-width="1" stroke-dasharray="4.894 1.106"/>
        <path id="Path_1086" data-name="Path 1086" d="M-1482.3,2554.453l-252.643-.483c-232.075-.414-392.011-153.914-391.561-366.5V2104.2" transform="translate(2195.91 -2104.168)" fill="none" stroke="#36bfd2" stroke-linecap="round" stroke-miterlimit="10" stroke-width="1" stroke-dasharray="4.71 1.29"/>
        <path id="Path_1087" data-name="Path 1087" d="M-1476.013,2546.592l-248.106-.476c-231.282-.4-386.615-150.417-386.184-362.11v-79.8" transform="translate(2189.619 -2104.172)" fill="none" stroke="#3cbfd1" stroke-linecap="round" stroke-miterlimit="10" stroke-width="1" stroke-dasharray="4.525 1.475"/>
        <path id="Path_1088" data-name="Path 1088" d="M-1469.722,2538.731l-243.569-.47c-230.489-.38-381.219-146.92-380.806-357.717v-76.327" transform="translate(2183.328 -2104.176)" fill="none" stroke="#42c0d1" stroke-linecap="round" stroke-miterlimit="10" stroke-width="1" stroke-dasharray="4.341 1.659"/>
        <path id="Path_1089" data-name="Path 1089" d="M-1463.432,2530.87l-239.031-.462c-229.7-.363-375.823-143.424-375.43-353.324v-72.858" transform="translate(2177.037 -2104.179)" fill="none" stroke="#48c0d0" stroke-linecap="round" stroke-miterlimit="10" stroke-width="1" stroke-dasharray="4.157 1.843"/>
        <path id="Path_1090" data-name="Path 1090" d="M-1457.141,2523.009l-234.494-.457c-228.9-.345-370.427-139.927-370.052-348.931v-69.389" transform="translate(2170.747 -2104.182)" fill="none" stroke="#4ec1d0" stroke-linecap="round" stroke-miterlimit="10" stroke-width="1" stroke-dasharray="3.972 2.028"/>
        <path id="Path_1091" data-name="Path 1091" d="M-1450.85,2515.148l-229.956-.45c-228.112-.328-365.032-136.43-364.676-344.537v-65.919" transform="translate(2164.456 -2104.186)" fill="none" stroke="#55c1d0" stroke-linecap="round" stroke-miterlimit="10" stroke-width="1" stroke-dasharray="3.788 2.212"/>
        <path id="Path_1092" data-name="Path 1092" d="M-1444.56,2507.287l-225.419-.443c-227.32-.311-359.636-132.933-359.3-340.145V2104.25" transform="translate(2158.165 -2104.19)" fill="none" stroke="#5bc1cf" stroke-linecap="round" stroke-miterlimit="10" stroke-width="1" stroke-dasharray="3.604 2.396"/>
        <path id="Path_1093" data-name="Path 1093" d="M-1438.268,2499.427l-220.882-.437c-226.527-.293-354.24-129.436-353.921-335.751v-58.98" transform="translate(2151.874 -2104.193)" fill="none" stroke="#61c2cf" stroke-linecap="round" stroke-miterlimit="10" stroke-width="1" stroke-dasharray="3.419 2.581"/>
        <path id="Path_1094" data-name="Path 1094" d="M-1431.978,2491.565l-216.344-.43c-225.735-.276-348.845-125.939-348.544-331.359v-55.51" transform="translate(2145.583 -2104.197)" fill="none" stroke="#67c2cf" stroke-linecap="round" stroke-miterlimit="10" stroke-width="1" stroke-dasharray="3.235 2.765"/>
        <path id="Path_1095" data-name="Path 1095" d="M-1425.687,2483.7l-211.807-.423c-224.942-.259-343.449-122.443-343.167-326.966v-52.041" transform="translate(2139.293 -2104.2)" fill="none" stroke="#6dc3ce" stroke-linecap="round" stroke-miterlimit="10" stroke-width="1" stroke-dasharray="3.051 2.949"/>
        <path id="Path_1096" data-name="Path 1096" d="M-1419.4,2475.844l-207.27-.417c-224.15-.242-338.052-118.946-337.79-322.572v-48.573" transform="translate(2133.002 -2104.204)" fill="none" stroke="#73c3ce" stroke-linecap="round" stroke-miterlimit="10" stroke-width="1" stroke-dasharray="2.866 3.134"/>
        <path id="Path_1097" data-name="Path 1097" d="M-1413.105,2467.983l-202.733-.41c-223.357-.224-332.657-115.449-332.413-318.179v-45.1" transform="translate(2126.711 -2104.208)" fill="none" stroke="#79c4ce" stroke-linecap="round" stroke-miterlimit="10" stroke-width="1" stroke-dasharray="2.682 3.318"/>
        <path id="Path_1098" data-name="Path 1098" d="M-1406.815,2460.122l-198.2-.4c-222.565-.207-327.261-111.952-327.036-313.787V2104.3" transform="translate(2120.42 -2104.211)" fill="none" stroke="#7fc4cd" stroke-linecap="round" stroke-miterlimit="10" stroke-width="1" stroke-dasharray="2.498 3.502"/>
        <path id="Path_1099" data-name="Path 1099" d="M-1400.524,2452.26l-193.658-.4c-221.772-.19-321.865-108.455-321.659-309.393v-38.164" transform="translate(2114.13 -2104.214)" fill="none" stroke="#86c4cd" stroke-linecap="round" stroke-miterlimit="10" stroke-width="1" stroke-dasharray="2.313 3.687"/>
        <path id="Path_1100" data-name="Path 1100" d="M-1394.233,2444.4l-189.121-.39c-220.979-.172-316.469-104.958-316.282-305v-34.694" transform="translate(2107.839 -2104.218)" fill="none" stroke="#8cc5cd" stroke-linecap="round" stroke-miterlimit="10" stroke-width="1" stroke-dasharray="2.129 3.871"/>
        <path id="Path_1101" data-name="Path 1101" d="M-1387.942,2436.539l-184.583-.384c-220.188-.156-311.074-101.461-310.906-300.607v-31.225" transform="translate(2101.548 -2104.222)" fill="none" stroke="#92c5cc" stroke-linecap="round" stroke-miterlimit="10" stroke-width="1" stroke-dasharray="1.945 4.055"/>
        <path id="Path_1102" data-name="Path 1102" d="M-1381.652,2428.678l-180.046-.377c-219.395-.138-305.678-97.964-305.528-296.214v-27.755" transform="translate(2095.258 -2104.225)" fill="none" stroke="#98c6cc" stroke-linecap="round" stroke-miterlimit="10" stroke-width="1" stroke-dasharray="1.76 4.24"/>
        <path id="Path_1103" data-name="Path 1103" d="M-1375.361,2420.817l-175.509-.37c-218.6-.121-300.282-94.467-300.151-291.821V2104.34" transform="translate(2088.967 -2104.229)" fill="none" stroke="#9ec6cb" stroke-linecap="round" stroke-miterlimit="10" stroke-width="1" stroke-dasharray="1.576 4.424"/>
        <path id="Path_1104" data-name="Path 1104" d="M-1369.07,2412.956l-170.971-.363c-217.81-.1-294.887-90.97-294.775-287.428v-20.817" transform="translate(2082.676 -2104.232)" fill="none" stroke="#a4c6cb" stroke-linecap="round" stroke-miterlimit="10" stroke-width="1" stroke-dasharray="1.392 4.608"/>
        <path id="Path_1105" data-name="Path 1105" d="M-1362.779,2405.1l-166.434-.357c-217.017-.086-289.491-87.473-289.4-283.034v-17.348" transform="translate(2076.385 -2104.236)" fill="none" stroke="#aac7cb" stroke-linecap="round" stroke-miterlimit="10" stroke-width="1" stroke-dasharray="1.207 4.793"/>
        <path id="Path_1106" data-name="Path 1106" d="M-1356.488,2397.235l-161.9-.351c-216.225-.069-284.095-83.977-284.02-278.642v-13.878" transform="translate(2070.094 -2104.24)" fill="none" stroke="#b0c7ca" stroke-linecap="round" stroke-miterlimit="10" stroke-width="1" stroke-dasharray="1.023 4.977"/>
        <path id="Path_1107" data-name="Path 1107" d="M-1350.2,2389.374l-157.36-.344c-215.432-.052-278.7-80.479-278.643-274.248v-10.409" transform="translate(2063.803 -2104.243)" fill="none" stroke="#b7c8ca" stroke-linecap="round" stroke-miterlimit="10" stroke-width="1" stroke-dasharray="0.839 5.161"/>
        <path id="Path_1108" data-name="Path 1108" d="M-1343.907,2381.513l-152.822-.338c-214.641-.034-273.3-76.982-273.266-269.855v-6.939" transform="translate(2057.512 -2104.247)" fill="none" stroke="#bdc8ca" stroke-linecap="round" stroke-miterlimit="10" stroke-width="1" stroke-dasharray="0.654 5.346"/>
        <path id="Path_1109" data-name="Path 1109" d="M-1337.616,2373.652l-148.285-.33c-213.848-.018-267.908-73.486-267.889-265.463v-3.469" transform="translate(2051.222 -2104.25)" fill="none" stroke="#c3c9c9" stroke-linecap="round" stroke-miterlimit="10" stroke-width="1" stroke-dasharray="0.47 5.53"/>
        <path id="Path_1110" data-name="Path 1110" d="M-1331.325,2365.791l-143.748-.324c-213.055,0-262.512-69.989-262.512-261.069h0" transform="translate(2044.931 -2104.254)" fill="none" stroke="#c9c9c9" stroke-linecap="round" stroke-miterlimit="10" stroke-width="1" stroke-dasharray="0.286 5.714"/>
      </g>
    </g>
  </g>
</svg>
